<svg width="350" height="271" viewBox="0 0 350 271" fill="none" xmlns="http://www.w3.org/2000/svg">
<path d="M309.439 167.905L303.849 102.697C301.243 72.2962 277.049 48.2324 246.636 45.7914L88.342 33.0848C56.6869 30.5447 28.1682 52.1674 22.0707 83.3335L4.93186 170.939C-2.87617 210.845 28.9399 247.449 69.5441 245.276L191.788 238.733L214.573 268.605L228.606 236.762L250.567 235.586C285.782 233.7 312.449 203.041 309.439 167.905Z" stroke="#00BF62" stroke-width="2" stroke-miterlimit="10"/>
<path opacity="0.2" d="M14.2234 123.817L17.1927 163.317C18.373 179.015 30.2893 191.794 45.8683 194.064L244.443 223.012C265.036 226.014 283.384 209.775 282.903 188.969L281.31 119.836C280.889 101.529 265.894 86.9285 247.583 86.9904L47.6325 87.6776C28.1186 87.7415 12.7605 104.356 14.2234 123.817Z" fill="#231F20"/>
<path d="M3.90619 113.697L6.87547 153.198C8.05575 168.896 19.9721 181.675 35.551 183.947L234.125 212.893C254.719 215.895 273.067 199.656 272.586 178.85L270.993 109.717C270.572 91.4102 255.577 76.8094 237.266 76.8713L37.3152 77.5564C17.8013 77.6244 2.44322 94.2371 3.90619 113.697Z" fill="white"/>
<path d="M18.6678 57.5841V48.0015C18.6678 42.9791 19.2724 38.8605 20.4857 35.6436C21.697 32.4267 23.7666 29.6968 26.6987 27.4497C29.6288 25.2026 32.922 23.7046 36.5784 22.9556V30.6212C33.9785 32.1193 32.5032 34.1229 32.1503 36.6361H36.5784V57.5862L18.6678 57.5841ZM42.5913 57.5841V48.0015C42.5913 42.9791 43.1959 38.8605 44.4092 35.6436C45.6204 32.4267 47.6797 29.6968 50.5892 27.4497C53.4965 25.2026 56.8022 23.7046 60.5019 22.9556V30.6212C57.902 32.1193 56.4266 34.1229 56.0738 36.6361H60.5019V57.5862L42.5913 57.5841Z" fill="#00BF62"/>
<path d="M300.834 191.348V200.931C300.834 205.91 300.24 210.016 299.049 213.256C297.859 216.493 295.799 219.225 292.869 221.452C289.939 223.676 286.623 225.184 282.924 225.977V218.245C285.567 216.79 287.065 214.809 287.418 212.296H282.924V191.346H300.834V191.348ZM324.758 191.348V200.931C324.758 205.91 324.163 210.016 322.973 213.256C321.784 216.493 319.723 219.225 316.793 221.452C313.863 223.676 310.547 225.184 306.847 225.977V218.245C309.447 216.79 310.922 214.809 311.275 212.296H306.847V191.346H324.758V191.348Z" fill="#00BF62"/>
</svg>
