<svg width="450" height="402" viewBox="0 0 450 402" fill="none" xmlns="http://www.w3.org/2000/svg">
<g clip-path="url(#clip0_35_222)">
<path d="M252.731 112.287C252.731 112.287 249.858 150.995 233.75 160.131C233.75 160.131 285.469 151.199 298.187 131.829C310.904 112.459 252.731 112.287 252.731 112.287Z" fill="url(#paint0_linear_35_222)"/>
<path d="M201.216 226.497C169.347 235.227 161.817 232.783 156.137 241.326C155.485 242.306 152.155 247.319 152.821 253.751C153.353 258.877 156.208 262.833 158.004 264.572C168.922 275.141 198.964 262.211 216.169 248.07C219.92 244.987 229.985 236.717 227.958 230.842C227.127 228.435 224.547 227.239 222.696 226.411C214.512 222.75 206.022 225.18 201.216 226.497Z" fill="url(#paint1_linear_35_222)"/>
<path d="M102.819 12.2802H109.602V56.7927H102.819V12.2802Z" fill="url(#paint2_linear_35_222)"/>
<path d="M82.7862 81.3808H129.633C133.088 81.3808 135.888 78.5811 135.888 75.1265V58.3837C135.888 54.9291 133.088 52.1294 129.633 52.1294H82.7862C79.3316 52.1294 76.5319 54.9291 76.5319 58.3837V75.1265C76.5332 78.5811 79.3329 81.3808 82.7862 81.3808Z" fill="url(#paint3_linear_35_222)"/>
<path d="M0.0151461 178.674C0.0151461 205.715 21.9378 227.638 48.9793 227.638H163.441C190.372 227.638 212.406 205.604 212.406 178.674V153.238C212.406 105.323 173.203 66.1196 125.287 66.1196H87.1324C39.2178 66.1196 0.0137939 105.322 0.0137939 153.238L0.0151461 178.674Z" fill="url(#paint4_linear_35_222)"/>
<path d="M33.4218 174.036C36.2007 175.41 39.3161 176.13 42.4814 176.13H169.938C173.103 176.13 176.219 175.41 178.998 174.036C185.824 170.662 189.676 163.848 188.712 156.859L188.641 156.351C185.375 132.675 163.933 114.473 137.645 113.105C126.522 112.526 114.85 112.227 102.675 112.298C93.1375 112.353 83.9187 112.633 75.042 113.09C48.654 114.449 27.054 132.58 23.7752 156.345C23.7517 156.515 23.7281 156.687 23.7046 156.857C22.7423 163.848 26.5957 170.662 33.4218 174.036Z" fill="url(#paint5_linear_35_222)"/>
<path d="M139.802 170.913C126.528 170.913 115.768 160.153 115.768 146.879C115.768 133.605 126.528 122.845 139.802 122.845C153.076 122.845 163.836 133.605 163.836 146.879C163.836 160.153 153.076 170.913 139.802 170.913Z" fill="url(#paint6_radial_35_222)"/>
<path d="M139.802 164.13C130.274 164.13 122.551 156.406 122.551 146.879C122.551 137.351 130.274 129.628 139.802 129.628C149.329 129.628 157.053 137.351 157.053 146.879C157.053 156.406 149.329 164.13 139.802 164.13Z" fill="#EEFDFF"/>
<path d="M139.802 161.367C131.8 161.367 125.313 154.88 125.313 146.879C125.313 138.877 131.8 132.39 139.802 132.39C147.804 132.39 154.29 138.877 154.29 146.879C154.29 154.88 147.804 161.367 139.802 161.367Z" fill="url(#paint7_linear_35_222)"/>
<path d="M130.521 143.123C130.521 146.088 132.923 148.49 135.888 148.49C138.852 148.49 141.254 146.087 141.254 143.123C141.254 140.16 138.852 137.757 135.888 137.757C132.923 137.757 130.521 140.16 130.521 143.123Z" fill="#EEFDFF"/>
<path d="M141.944 160.132C140.761 160.132 139.802 159.174 139.802 157.99C139.802 156.808 140.761 155.848 141.944 155.848C143.126 155.848 144.086 156.808 144.086 157.99C144.086 159.174 143.126 160.132 141.944 160.132Z" fill="#EEFDFF"/>
<path d="M147.255 154.776C147.255 155.368 147.734 155.847 148.326 155.847C148.917 155.847 149.396 155.368 149.396 154.776C149.396 154.185 148.917 153.706 148.326 153.706C147.734 153.706 147.255 154.187 147.255 154.776Z" fill="#EEFDFF"/>
<path d="M74.8745 170.913C61.6007 170.913 50.8403 160.153 50.8403 146.879C50.8403 133.605 61.6007 122.845 74.8745 122.845C88.1481 122.845 98.9086 133.605 98.9086 146.879C98.9086 160.153 88.1481 170.913 74.8745 170.913Z" fill="url(#paint8_radial_35_222)"/>
<path d="M74.8745 164.13C65.3469 164.13 57.6235 156.406 57.6235 146.879C57.6235 137.351 65.3469 129.628 74.8745 129.628C84.4019 129.628 92.1254 137.351 92.1254 146.879C92.1254 156.406 84.4019 164.13 74.8745 164.13Z" fill="#EEFDFF"/>
<path d="M74.8745 161.367C66.8727 161.367 60.3859 154.88 60.3859 146.879C60.3859 138.877 66.8727 132.39 74.8745 132.39C82.8763 132.39 89.3631 138.877 89.3631 146.879C89.3631 154.88 82.8763 161.367 74.8745 161.367Z" fill="url(#paint9_linear_35_222)"/>
<path d="M65.592 143.123C65.592 146.088 67.9957 148.49 70.9588 148.49C73.9219 148.49 76.327 146.087 76.327 143.123C76.327 140.16 73.9233 137.757 70.9588 137.757C67.9943 137.757 65.592 140.16 65.592 143.123Z" fill="#EEFDFF"/>
<path d="M77.0165 160.132C75.8335 160.132 74.8745 159.174 74.8745 157.99C74.8745 156.808 75.8335 155.848 77.0165 155.848C78.1994 155.848 79.1585 156.808 79.1585 157.99C79.1585 159.174 78.1994 160.132 77.0165 160.132Z" fill="#EEFDFF"/>
<path d="M82.3279 154.776C82.3279 155.368 82.807 155.847 83.3982 155.847C83.9894 155.847 84.4685 155.368 84.4685 154.776C84.4685 154.185 83.9894 153.706 83.3982 153.706C82.807 153.706 82.3279 154.187 82.3279 154.776Z" fill="#EEFDFF"/>
<path d="M97.5199 9.31294C97.5199 14.112 101.411 18.0042 106.211 18.0042C111.01 18.0042 114.901 14.1134 114.901 9.31294C114.901 4.51385 111.01 0.621704 106.211 0.621704C101.411 0.621704 97.5199 4.51248 97.5199 9.31294Z" fill="url(#paint10_linear_35_222)"/>
<path d="M100.169 5.92066C100.169 7.3842 101.355 8.56943 102.819 8.56943C104.282 8.56943 105.469 7.38282 105.469 5.92066C105.469 4.45712 104.282 3.27051 102.819 3.27051C101.355 3.27189 100.169 4.45712 100.169 5.92066Z" fill="white"/>
<path d="M31.3795 93.9851C31.2646 98.042 34.5766 102.895 38.3704 103.309C41.9261 103.698 44.766 100.065 47.6944 96.3182C50.5813 92.6254 56.8938 83.138 54.3793 80.4546C51.066 76.9169 31.6523 84.4132 31.3795 93.9851Z" fill="white"/>
<path d="M63.8654 78.5189C62.1975 78.5189 60.8456 77.1669 60.8456 75.4991C60.8456 73.8312 62.1975 72.4792 63.8654 72.4792C65.5332 72.4792 66.8853 73.8312 66.8853 75.4991C66.8853 77.1669 65.5332 78.5189 63.8654 78.5189Z" fill="white"/>
<path d="M31.8102 150.267C32.7794 150.951 39.535 137.188 57.6707 125.255C64.0454 121.06 70.3385 118.07 69.9647 117.201C69.5853 116.319 62.4974 117.96 56.8233 120.592C38.743 128.98 30.6582 149.454 31.8102 150.267Z" fill="white"/>
<path d="M78.2502 60.7889C78.4662 60.8194 78.6047 59.5497 79.6625 57.5877C79.6625 57.5877 80.1568 56.6695 80.7217 55.8914C82.5425 53.3852 88.7151 53.4406 89.1997 53.4448C98.8131 53.5278 104.994 52.9187 104.991 52.9769C104.99 53.0254 100.482 52.934 97.1779 52.8675C87.858 52.6778 82.3057 52.1764 79.9256 54.6729C78.9384 55.7086 78.4413 57.0572 78.4413 57.0572C77.7684 58.8877 77.9927 60.7515 78.2502 60.7889Z" fill="white"/>
<path d="M80.2495 186.444C80.4849 188.747 82.4012 190.52 84.7052 190.742L116.543 193.812C118.846 194.033 121.067 192.661 121.738 190.446C122.037 189.461 122.267 188.446 122.424 187.402C122.466 187.114 122.39 186.821 122.21 186.589C122.03 186.36 121.764 186.214 121.474 186.185L81.3074 182.311C81.0208 182.283 80.7369 182.375 80.5195 182.563C80.3022 182.751 80.1734 183.021 80.1609 183.308C80.1125 184.37 80.1443 185.417 80.2495 186.444Z" fill="#EEFDFF"/>
<path d="M80.2482 186.447C81.2659 196.316 89.1125 204.43 99.3628 205.409C109.473 206.388 118.605 200.118 121.607 190.835C120.805 192.819 118.72 194.028 116.544 193.81L84.6983 190.745C82.3971 190.516 80.4891 188.748 80.2482 186.447Z" fill="url(#paint11_linear_35_222)"/>
<path d="M30.0863 257.952C30.0863 258.245 30.0863 258.524 30.0988 258.791C30.1998 261.462 30.8243 263.471 31.1289 264.374C39.8922 291.146 45.144 305.263 52.5074 316.684C53.7785 318.655 55.1146 320.549 56.5518 322.406C58.4335 324.886 60.4938 327.302 62.784 329.796C67.8711 335.329 75.5654 337.834 78.0452 338.699C87.1131 341.904 95.1258 341.319 100.454 341.37H101.383C106.725 341.319 114.724 341.904 123.792 338.699C126.271 337.834 133.978 335.329 139.053 329.796C153.043 314.572 158.422 301.918 170.708 264.374C171 263.51 171.586 261.64 171.726 259.135C171.763 258.409 171.777 257.685 171.738 256.96C171.471 252.471 169.653 248.069 166.421 244.051C160.888 237.158 152.342 233.381 143.503 233.342L100.911 233.164L59.094 232.999C50.0635 232.96 41.3141 236.751 35.5791 243.732C32.8057 247.115 31.0389 250.765 30.3895 254.53C30.3009 255.064 30.2248 255.611 30.1735 256.145C30.1251 256.744 30.0863 257.342 30.0863 257.952Z" fill="url(#paint12_linear_35_222)"/>
<path d="M100.919 233.171L143.511 233.349C152.351 233.388 160.896 237.165 166.429 244.058C169.66 248.077 171.478 252.478 171.746 256.967C171.53 252.363 169.635 247.847 166.265 243.739C160.542 236.757 151.779 232.967 142.75 233.006L100.919 233.171Z" fill="url(#paint13_linear_35_222)"/>
<path d="M58.5872 295.92C59.2089 262.882 63.6798 256.348 57.0863 248.489C56.3289 247.586 52.4617 242.976 46.1022 241.799C41.0345 240.862 36.4348 242.485 34.2582 243.717C21.0378 251.207 24.9605 283.677 33.6697 304.175C35.568 308.645 40.662 320.634 46.8706 320.347C49.4142 320.23 51.2903 318.092 52.6057 316.551C58.428 309.731 58.4931 300.9 58.5872 295.92Z" fill="url(#paint14_linear_35_222)"/>
<path d="M52.5088 316.684C53.7799 318.655 55.116 320.55 56.5533 322.406C57.0116 321.936 57.4185 321.465 57.7868 321.033C63.6119 314.216 63.6757 305.389 63.7643 300.405C64.3874 267.364 68.8639 260.839 62.2634 252.979C61.7802 252.395 60.012 250.296 57.1376 248.554C63.6494 256.388 59.2103 262.976 58.5872 295.916C58.4986 300.9 58.4225 309.727 52.6099 316.558C52.5725 316.595 52.5337 316.632 52.5088 316.684Z" fill="url(#paint15_linear_35_222)"/>
<path d="M33.8649 268.408C34.0518 264.858 34.7178 262.247 36.0498 257.025C37.7917 250.193 39.9764 246.863 38.5572 245.544C37.6337 244.685 35.8144 245.265 35.4018 245.397C29.1572 247.389 27.2241 259.104 27.4927 266.436C27.6575 270.925 28.7529 275.944 30.3978 276.166C30.6567 276.2 31.302 276.167 31.763 275.759C33.599 274.137 33.7223 271.106 33.8649 268.408Z" fill="white"/>
<path d="M29.5768 280.937C29.5768 281.653 30.1569 282.233 30.8728 282.233C31.5886 282.233 32.1688 281.653 32.1688 280.937C32.1688 280.221 31.5886 279.641 30.8728 279.641C30.1569 279.641 29.5768 280.221 29.5768 280.937Z" fill="white"/>
<path d="M102.819 401.046C65.2949 401.046 34.8757 388.592 34.8757 373.23C34.8757 357.868 65.2949 345.414 102.819 345.414C140.343 345.414 170.762 357.868 170.762 373.23C170.762 388.592 140.343 401.046 102.819 401.046Z" fill="url(#paint16_radial_35_222)"/>
<path d="M291.392 131.829H384.245C420.384 131.829 449.954 102.259 449.954 66.1196C449.954 29.9797 420.384 0.409912 384.245 0.409912H291.392C255.252 0.409912 225.683 29.9797 225.683 66.1196C225.683 102.259 255.251 131.829 291.392 131.829Z" fill="url(#paint17_linear_35_222)"/>
<path d="M249.78 84.952C248.74 84.952 247.772 84.8 246.876 84.496C245.996 84.208 245.228 83.8 244.572 83.272C243.916 82.76 243.396 82.144 243.012 81.424C242.644 80.72 242.46 79.952 242.46 79.12C242.46 78.816 242.484 78.424 242.532 77.944C242.58 77.464 242.644 76.912 242.724 76.288C242.82 75.664 242.924 75 243.036 74.296L246.204 74.728C246.044 75.736 245.916 76.632 245.82 77.416C245.724 78.2 245.676 78.752 245.676 79.072C245.676 79.68 245.844 80.216 246.18 80.68C246.516 81.144 246.988 81.504 247.596 81.76C248.22 82.032 248.948 82.168 249.78 82.168H256.572C257.612 82.168 258.388 81.904 258.9 81.376C259.412 80.848 259.668 80.08 259.668 79.072V78.16H262.86V79.072C262.86 80.224 262.604 81.24 262.092 82.12C261.58 83 260.852 83.688 259.908 84.184C258.98 84.696 257.868 84.952 256.572 84.952H249.78ZM258.612 79C257.876 79 257.164 78.92 256.476 78.76C255.804 78.6 255.164 78.312 254.556 77.896L256.38 75.592C256.636 75.768 256.86 75.904 257.052 76C257.26 76.08 257.484 76.136 257.724 76.168C257.98 76.2 258.276 76.216 258.612 76.216H263.916V79H258.612ZM263.916 79V76.216C263.996 76.216 264.068 76.248 264.132 76.312C264.196 76.376 264.244 76.472 264.276 76.6C264.308 76.728 264.332 76.88 264.348 77.056C264.38 77.216 264.396 77.4 264.396 77.608C264.396 77.816 264.38 78.008 264.348 78.184C264.332 78.36 264.308 78.512 264.276 78.64C264.244 78.752 264.196 78.84 264.132 78.904C264.068 78.968 263.996 79 263.916 79ZM248.964 89.896V87.16H252.06V89.896H248.964ZM253.332 89.896V87.16H256.428V89.896H253.332ZM277.346 79V76.216H279.866V79H277.346ZM263.906 79C263.81 79 263.738 78.968 263.69 78.904C263.626 78.84 263.578 78.752 263.546 78.64C263.498 78.512 263.466 78.36 263.45 78.184C263.434 78.008 263.426 77.816 263.426 77.608C263.426 77.32 263.442 77.08 263.474 76.888C263.506 76.68 263.562 76.52 263.642 76.408C263.706 76.28 263.794 76.216 263.906 76.216V79ZM263.906 79V76.216H275.114L274.13 77.056V69.04L274.946 69.736H271.922C271.218 69.736 270.666 69.824 270.266 70C269.866 70.176 269.586 70.504 269.426 70.984C269.266 71.448 269.186 72.112 269.186 72.976C269.186 73.92 269.266 74.624 269.426 75.088C269.586 75.536 269.866 75.84 270.266 76C270.666 76.144 271.218 76.216 271.922 76.216V78.712C270.562 78.712 269.442 78.52 268.562 78.136C267.682 77.752 267.026 77.144 266.594 76.312C266.178 75.464 265.97 74.352 265.97 72.976C265.97 71.664 266.178 70.56 266.594 69.664C267.026 68.768 267.682 68.096 268.562 67.648C269.442 67.184 270.562 66.952 271.922 66.952H277.346V79H263.906ZM279.866 79V76.216C279.962 76.216 280.042 76.248 280.106 76.312C280.17 76.376 280.218 76.472 280.25 76.6C280.282 76.728 280.306 76.88 280.322 77.056C280.338 77.216 280.346 77.4 280.346 77.608C280.346 77.816 280.338 78.008 280.322 78.184C280.306 78.36 280.282 78.512 280.25 78.64C280.218 78.752 280.17 78.84 280.106 78.904C280.042 78.968 279.962 79 279.866 79ZM268.538 64.744V62.008H271.634V64.744H268.538ZM272.906 64.744V62.008H276.002V64.744H272.906ZM279.867 79V76.216H285.555L283.683 77.776V66.952H286.875V79H279.867ZM279.867 79C279.771 79 279.699 78.968 279.651 78.904C279.587 78.84 279.539 78.752 279.507 78.64C279.459 78.512 279.427 78.36 279.411 78.184C279.395 78.008 279.387 77.816 279.387 77.608C279.387 77.32 279.403 77.08 279.435 76.888C279.467 76.68 279.523 76.52 279.603 76.408C279.667 76.28 279.755 76.216 279.867 76.216V79ZM280.731 84.112V81.376H283.827V84.112H280.731ZM285.099 84.112V81.376H288.195V84.112H285.099ZM299.337 79V76.216H301.857V79H299.337ZM289.593 79V76.216H298.305L296.121 78.112V74.08C296.121 72.944 296.001 72.064 295.761 71.44C295.537 70.816 295.153 70.376 294.609 70.12C294.081 69.864 293.353 69.736 292.425 69.736H290.481V66.952H292.425C293.897 66.952 295.145 67.192 296.169 67.672C297.209 68.152 297.993 68.92 298.521 69.976C299.065 71.016 299.337 72.384 299.337 74.08V79H289.593ZM301.857 79V76.216C301.953 76.216 302.033 76.248 302.097 76.312C302.161 76.376 302.209 76.472 302.241 76.6C302.273 76.728 302.297 76.88 302.313 77.056C302.329 77.216 302.337 77.4 302.337 77.608C302.337 77.816 302.329 78.008 302.313 78.184C302.297 78.36 302.273 78.512 302.241 78.64C302.209 78.752 302.161 78.84 302.097 78.904C302.033 78.968 301.953 79 301.857 79ZM301.852 79V76.216H319.996L317.284 78.568V73.528C317.284 72.616 317.164 71.888 316.924 71.344C316.684 70.784 316.332 70.376 315.868 70.12C315.42 69.864 314.876 69.736 314.236 69.736C313.548 69.736 312.892 69.872 312.268 70.144C311.66 70.416 311.092 70.768 310.564 71.2C310.036 71.632 309.548 72.096 309.1 72.592C308.652 73.088 308.252 73.568 307.9 74.032C307.548 74.48 307.244 74.864 306.988 75.184L306.268 72.856C306.892 72.104 307.452 71.416 307.948 70.792C308.444 70.168 308.916 69.616 309.364 69.136C309.828 68.656 310.308 68.256 310.804 67.936C311.316 67.616 311.868 67.376 312.46 67.216C313.068 67.04 313.772 66.952 314.572 66.952C315.644 66.952 316.556 67.136 317.308 67.504C318.06 67.856 318.668 68.344 319.132 68.968C319.612 69.592 319.956 70.296 320.164 71.08C320.388 71.864 320.5 72.68 320.5 73.528V79H301.852ZM304.876 76.216V66.952H308.092V76.216H304.876ZM301.852 79C301.756 79 301.684 78.968 301.636 78.904C301.572 78.84 301.524 78.752 301.492 78.64C301.444 78.512 301.412 78.36 301.396 78.184C301.38 78.008 301.372 77.816 301.372 77.608C301.372 77.32 301.388 77.08 301.42 76.888C301.452 76.68 301.508 76.52 301.588 76.408C301.652 76.28 301.74 76.216 301.852 76.216V79ZM332.727 79V76.216H335.463V79H332.727ZM329.535 79V62.032H332.727V79H329.535ZM335.463 79V76.216C335.559 76.216 335.631 76.248 335.679 76.312C335.743 76.376 335.791 76.472 335.823 76.6C335.871 76.728 335.903 76.88 335.919 77.056C335.935 77.216 335.943 77.4 335.943 77.608C335.943 77.816 335.935 78.008 335.919 78.184C335.903 78.36 335.871 78.512 335.823 78.64C335.791 78.752 335.743 78.84 335.679 78.904C335.631 78.968 335.559 79 335.463 79ZM335.461 79V76.216H341.149L339.277 77.776V66.952H342.469V79H335.461ZM335.461 79C335.365 79 335.293 78.968 335.245 78.904C335.181 78.84 335.133 78.752 335.101 78.64C335.053 78.512 335.021 78.36 335.005 78.184C334.989 78.008 334.981 77.816 334.981 77.608C334.981 77.32 334.997 77.08 335.029 76.888C335.061 76.68 335.117 76.52 335.197 76.408C335.261 76.28 335.349 76.216 335.461 76.216V79ZM336.325 84.112V81.376H339.421V84.112H336.325ZM340.693 84.112V81.376H343.789V84.112H340.693ZM368.101 79V76.216H370.621V79H368.101ZM358.309 79C356.597 79 355.149 78.776 353.965 78.328C352.797 77.88 351.909 77.216 351.301 76.336C350.709 75.456 350.413 74.36 350.413 73.048C350.413 72.664 350.437 72.264 350.485 71.848C350.533 71.416 350.589 71.008 350.653 70.624C350.733 70.224 350.805 69.872 350.869 69.568C350.933 69.264 350.981 69.04 351.013 68.896L354.133 69.496C354.085 69.752 354.021 70.08 353.941 70.48C353.861 70.88 353.789 71.304 353.725 71.752C353.661 72.184 353.629 72.6 353.629 73C353.629 73.624 353.725 74.144 353.917 74.56C354.125 74.976 354.429 75.312 354.829 75.568C355.229 75.808 355.733 75.976 356.341 76.072C356.949 76.168 357.661 76.216 358.477 76.216H366.757L364.885 77.776V62.032H368.101V79H358.309ZM370.621 79V76.216C370.717 76.216 370.789 76.248 370.837 76.312C370.901 76.376 370.949 76.472 370.981 76.6C371.029 76.728 371.061 76.88 371.077 77.056C371.093 77.216 371.101 77.4 371.101 77.608C371.101 77.816 371.093 78.008 371.077 78.184C371.061 78.36 371.029 78.512 370.981 78.64C370.949 78.752 370.901 78.84 370.837 78.904C370.789 78.968 370.717 79 370.621 79ZM357.805 69.952C357.501 69.584 357.269 69.232 357.109 68.896C356.949 68.56 356.869 68.2 356.869 67.816C356.869 67.272 357.013 66.784 357.301 66.352C357.589 65.904 357.965 65.56 358.429 65.32C358.893 65.064 359.405 64.936 359.965 64.936C360.269 64.936 360.581 64.976 360.901 65.056C361.221 65.136 361.493 65.256 361.717 65.416L360.901 66.88C360.757 66.8 360.613 66.752 360.469 66.736C360.341 66.704 360.205 66.688 360.061 66.688C359.677 66.688 359.381 66.792 359.173 67C358.965 67.192 358.861 67.456 358.861 67.792C358.861 67.984 358.901 68.168 358.981 68.344C359.061 68.52 359.181 68.712 359.341 68.92L357.805 69.952ZM356.341 70.144V68.392H362.149V70.144H356.341ZM370.617 79V76.216H375.009L373.137 77.776V66.952H376.353V79H370.617ZM370.617 79C370.521 79 370.449 78.968 370.401 78.904C370.337 78.84 370.289 78.752 370.257 78.64C370.209 78.512 370.177 78.36 370.161 78.184C370.145 78.008 370.137 77.816 370.137 77.608C370.137 77.32 370.153 77.08 370.185 76.888C370.217 76.68 370.273 76.52 370.353 76.408C370.417 76.28 370.505 76.216 370.617 76.216V79ZM373.137 84.112V81.376H376.353V84.112H373.137ZM385.48 79V62.032H388.672V79H385.48ZM405.676 79V76.216H408.196V79H405.676ZM391.804 79V76.216H403.996L402.46 77.8V62.032H405.676V79H391.804ZM395.14 76.216V65.392H398.332V76.216H395.14ZM408.196 79V76.216C408.292 76.216 408.364 76.248 408.412 76.312C408.476 76.376 408.524 76.472 408.556 76.6C408.604 76.728 408.636 76.88 408.652 77.056C408.668 77.216 408.676 77.4 408.676 77.608C408.676 77.816 408.668 78.008 408.652 78.184C408.636 78.36 408.604 78.512 408.556 78.64C408.524 78.752 408.476 78.84 408.412 78.904C408.364 78.968 408.292 79 408.196 79ZM408.188 79V76.216H424.844L422.612 78.016V73.912C422.612 72.536 422.428 71.432 422.06 70.6C421.708 69.768 421.14 69.168 420.356 68.8C419.588 68.416 418.588 68.224 417.356 68.224C416.764 68.224 416.116 68.248 415.412 68.296C414.708 68.328 414.004 68.376 413.3 68.44C412.612 68.488 411.988 68.544 411.428 68.608L411.092 66.448C411.636 66.304 412.268 66.152 412.988 65.992C413.708 65.832 414.46 65.696 415.243 65.584C416.044 65.472 416.82 65.416 417.572 65.416C418.612 65.416 419.62 65.56 420.596 65.848C421.588 66.12 422.476 66.584 423.26 67.24C424.044 67.88 424.668 68.744 425.132 69.832C425.596 70.92 425.828 72.28 425.828 73.912V79H408.188ZM410.66 76.216V75.016C410.66 74.248 410.852 73.536 411.236 72.88C411.636 72.208 412.18 71.68 412.868 71.296C413.556 70.896 414.324 70.696 415.172 70.696C416.02 70.696 416.78 70.896 417.452 71.296C418.124 71.68 418.652 72.2 419.036 72.856C419.436 73.512 419.636 74.232 419.636 75.016V76.216H417.092V75.016C417.092 74.616 417.004 74.264 416.828 73.96C416.652 73.64 416.42 73.384 416.132 73.192C415.844 73 415.524 72.904 415.172 72.904C414.82 72.904 414.492 73 414.188 73.192C413.9 73.384 413.668 73.64 413.492 73.96C413.316 74.264 413.228 74.616 413.228 75.016V76.216H410.66ZM408.188 79C408.091 79 408.019 78.968 407.971 78.904C407.907 78.84 407.859 78.752 407.827 78.64C407.779 78.512 407.747 78.36 407.731 78.184C407.715 78.008 407.707 77.816 407.707 77.608C407.707 77.32 407.723 77.08 407.755 76.888C407.787 76.68 407.843 76.52 407.923 76.408C407.987 76.28 408.075 76.216 408.188 76.216V79ZM429.637 79V62.032H432.829V79H429.637ZM429.781 60.112C429.477 59.744 429.245 59.392 429.085 59.056C428.925 58.72 428.845 58.36 428.845 57.976C428.845 57.432 428.989 56.944 429.277 56.512C429.565 56.064 429.941 55.72 430.405 55.48C430.869 55.224 431.381 55.096 431.941 55.096C432.245 55.096 432.557 55.136 432.877 55.216C433.197 55.296 433.469 55.416 433.693 55.576L432.877 57.04C432.733 56.96 432.589 56.912 432.445 56.896C432.317 56.864 432.181 56.848 432.037 56.848C431.653 56.848 431.357 56.952 431.149 57.16C430.941 57.352 430.837 57.616 430.837 57.952C430.837 58.144 430.877 58.328 430.957 58.504C431.037 58.68 431.157 58.872 431.317 59.08L429.781 60.112ZM428.317 60.304V58.552H434.125V60.304H428.317Z" fill="white"/>
</g>
<defs>
<linearGradient id="paint0_linear_35_222" x1="279.744" y1="109.1" x2="261.938" y2="157.428" gradientUnits="userSpaceOnUse">
<stop stop-color="#ABF0A5"/>
<stop offset="1" stop-color="#DEFA8E"/>
</linearGradient>
<linearGradient id="paint1_linear_35_222" x1="183.079" y1="246.582" x2="59.5106" y2="342.617" gradientUnits="userSpaceOnUse">
<stop offset="0.0397" stop-color="#06BED8"/>
<stop offset="1" stop-color="#DEFA8E"/>
</linearGradient>
<linearGradient id="paint2_linear_35_222" x1="120.034" y1="36.5523" x2="99.6852" y2="33.5848" gradientUnits="userSpaceOnUse">
<stop offset="0.0397" stop-color="#06CFF1"/>
<stop offset="1" stop-color="#DEFA8E"/>
</linearGradient>
<linearGradient id="paint3_linear_35_222" x1="125.224" y1="88.2227" x2="89.1125" y2="47.4513" gradientUnits="userSpaceOnUse">
<stop offset="0.0397" stop-color="#06CFF1"/>
<stop offset="1" stop-color="#DEFA8E"/>
</linearGradient>
<linearGradient id="paint4_linear_35_222" x1="177.528" y1="229.447" x2="34.4313" y2="86.3491" gradientUnits="userSpaceOnUse">
<stop offset="0.0397" stop-color="#06CFF1"/>
<stop offset="1" stop-color="#DEFA8E"/>
</linearGradient>
<linearGradient id="paint5_linear_35_222" x1="106.587" y1="175.924" x2="105.315" y2="118.693" gradientUnits="userSpaceOnUse">
<stop stop-color="#030D14"/>
<stop offset="1" stop-color="#0B2F45"/>
</linearGradient>
<radialGradient id="paint6_radial_35_222" cx="0" cy="0" r="1" gradientUnits="userSpaceOnUse" gradientTransform="translate(139.802 146.879) rotate(180) scale(23.7855)">
<stop offset="0.1296" stop-color="#3280FC"/>
<stop offset="1"/>
</radialGradient>
<linearGradient id="paint7_linear_35_222" x1="154.292" y1="146.879" x2="125.313" y2="146.879" gradientUnits="userSpaceOnUse">
<stop stop-color="#030D14"/>
<stop offset="1" stop-color="#0B2F45"/>
</linearGradient>
<radialGradient id="paint8_radial_35_222" cx="0" cy="0" r="1" gradientUnits="userSpaceOnUse" gradientTransform="translate(74.8748 146.879) rotate(180) scale(23.7855 23.7855)">
<stop offset="0.1296" stop-color="#3280FC"/>
<stop offset="1"/>
</radialGradient>
<linearGradient id="paint9_linear_35_222" x1="89.3639" y1="146.879" x2="60.3856" y2="146.879" gradientUnits="userSpaceOnUse">
<stop stop-color="#030D14"/>
<stop offset="1" stop-color="#0B2F45"/>
</linearGradient>
<linearGradient id="paint10_linear_35_222" x1="124.505" y1="11.9803" x2="97.575" y2="8.05294" gradientUnits="userSpaceOnUse">
<stop offset="0.0397" stop-color="#06CFF1"/>
<stop offset="1" stop-color="#DEFA8E"/>
</linearGradient>
<linearGradient id="paint11_linear_35_222" x1="107.08" y1="198.152" x2="65.6481" y2="156.72" gradientUnits="userSpaceOnUse">
<stop offset="0.0714" stop-color="#0DA9AB"/>
<stop offset="1" stop-color="#DEFA8E"/>
</linearGradient>
<linearGradient id="paint12_linear_35_222" x1="146.21" y1="323.881" x2="36.4371" y2="195.695" gradientUnits="userSpaceOnUse">
<stop offset="0.0397" stop-color="#06CFF1"/>
<stop offset="0.0408" stop-color="#06CFF1"/>
<stop offset="0.1607" stop-color="#37D9DB"/>
<stop offset="0.2745" stop-color="#5DE0CA"/>
<stop offset="0.3793" stop-color="#78E6BD"/>
<stop offset="0.4719" stop-color="#88E9B6"/>
<stop offset="0.5423" stop-color="#8EEAB3"/>
<stop offset="0.8004" stop-color="#B9F39F"/>
<stop offset="1" stop-color="#DEFA8E"/>
</linearGradient>
<linearGradient id="paint13_linear_35_222" x1="152.025" y1="259.975" x2="86.0119" y2="182.888" gradientUnits="userSpaceOnUse">
<stop offset="0.0397" stop-color="#06CFF1"/>
<stop offset="1" stop-color="#DEFA8E"/>
</linearGradient>
<linearGradient id="paint14_linear_35_222" x1="10.186" y1="304.74" x2="92.3757" y2="244.628" gradientUnits="userSpaceOnUse">
<stop offset="0.0397" stop-color="#06CFF1"/>
<stop offset="0.0734" stop-color="#0FD1ED"/>
<stop offset="0.4151" stop-color="#67E2C5"/>
<stop offset="0.6937" stop-color="#A7EFA7"/>
<stop offset="0.8955" stop-color="#CFF795"/>
<stop offset="1" stop-color="#DEFA8E"/>
</linearGradient>
<linearGradient id="paint15_linear_35_222" x1="82.6168" y1="298.911" x2="24.3687" y2="268.556" gradientUnits="userSpaceOnUse">
<stop offset="0.0397" stop-color="#06BED8"/>
<stop offset="1" stop-color="#DEFA8E"/>
</linearGradient>
<radialGradient id="paint16_radial_35_222" cx="0" cy="0" r="1" gradientUnits="userSpaceOnUse" gradientTransform="translate(102.819 373.23) rotate(180) scale(67.9429 27.815)">
<stop stop-color="#BCD7D6"/>
<stop offset="1" stop-color="white"/>
</radialGradient>
<linearGradient id="paint17_linear_35_222" x1="449.954" y1="66.1193" x2="225.683" y2="66.1193" gradientUnits="userSpaceOnUse">
<stop stop-color="#06CFF1"/>
<stop offset="1" stop-color="#DEFA8E"/>
</linearGradient>
<clipPath id="clip0_35_222">
<rect width="450" height="401.538" fill="white"/>
</clipPath>
</defs>
</svg>
